<mxfile host="app.diagrams.net" agent="Mozilla/5.0 (Macintosh; Intel Mac OS X 10_15_7) AppleWebKit/537.36 (KHTML, like Gecko) Chrome/136.0.0.0 Safari/537.36" version="27.1.5">
  <diagram id="J1r5KkGxi6NfSPPXA9zl" name="Page-1">
    <mxGraphModel dx="1074" dy="1053" grid="1" gridSize="10" guides="1" tooltips="1" connect="1" arrows="1" fold="1" page="1" pageScale="1" pageWidth="827" pageHeight="1169" math="0" shadow="0">
      <root>
        <mxCell id="0" />
        <mxCell id="1" parent="0" />
        <mxCell id="K9rkXe4piy7wDcdysyzR-65" value="" style="rounded=1;whiteSpace=wrap;html=1;" vertex="1" parent="1">
          <mxGeometry x="1264.5" y="160" width="1535.5" height="900" as="geometry" />
        </mxCell>
        <mxCell id="K9rkXe4piy7wDcdysyzR-33" value="" style="rounded=1;whiteSpace=wrap;html=1;container=1;" vertex="1" parent="1">
          <mxGeometry x="1587" y="290" width="960" height="710" as="geometry" />
        </mxCell>
        <mxCell id="K9rkXe4piy7wDcdysyzR-98" value="" style="image;aspect=fixed;html=1;points=[];align=center;fontSize=12;image=img/lib/azure2/analytics/Azure_Databricks.svg;" vertex="1" parent="K9rkXe4piy7wDcdysyzR-33">
          <mxGeometry x="584.1399999999999" y="228" width="37.86" height="41" as="geometry" />
        </mxCell>
        <mxCell id="K9rkXe4piy7wDcdysyzR-34" value="" style="image;aspect=fixed;html=1;points=[];align=center;fontSize=12;image=img/lib/azure2/analytics/Azure_Databricks.svg;" vertex="1" parent="1">
          <mxGeometry x="1600" y="242" width="62.8" height="68" as="geometry" />
        </mxCell>
        <mxCell id="K9rkXe4piy7wDcdysyzR-49" style="edgeStyle=orthogonalEdgeStyle;rounded=0;orthogonalLoop=1;jettySize=auto;html=1;entryX=0;entryY=0.5;entryDx=0;entryDy=0;" edge="1" parent="1" source="K9rkXe4piy7wDcdysyzR-39" target="K9rkXe4piy7wDcdysyzR-40">
          <mxGeometry relative="1" as="geometry" />
        </mxCell>
        <mxCell id="K9rkXe4piy7wDcdysyzR-36" value="" style="image;aspect=fixed;html=1;points=[];align=center;fontSize=12;image=img/lib/azure2/analytics/Data_Lake_Store_Gen1.svg;" vertex="1" parent="1">
          <mxGeometry x="1310" y="368" width="64" height="52" as="geometry" />
        </mxCell>
        <mxCell id="K9rkXe4piy7wDcdysyzR-39" value="" style="rounded=0;whiteSpace=wrap;html=1;" vertex="1" parent="1">
          <mxGeometry x="1700" y="400" width="180" height="330" as="geometry" />
        </mxCell>
        <mxCell id="K9rkXe4piy7wDcdysyzR-50" value="" style="edgeStyle=orthogonalEdgeStyle;rounded=0;orthogonalLoop=1;jettySize=auto;html=1;" edge="1" parent="1" source="K9rkXe4piy7wDcdysyzR-40" target="K9rkXe4piy7wDcdysyzR-41">
          <mxGeometry relative="1" as="geometry" />
        </mxCell>
        <mxCell id="K9rkXe4piy7wDcdysyzR-40" value="" style="rounded=0;whiteSpace=wrap;html=1;" vertex="1" parent="1">
          <mxGeometry x="1960" y="400" width="200" height="330" as="geometry" />
        </mxCell>
        <mxCell id="K9rkXe4piy7wDcdysyzR-51" style="edgeStyle=orthogonalEdgeStyle;rounded=0;orthogonalLoop=1;jettySize=auto;html=1;" edge="1" parent="1" source="K9rkXe4piy7wDcdysyzR-41" target="K9rkXe4piy7wDcdysyzR-45">
          <mxGeometry relative="1" as="geometry" />
        </mxCell>
        <mxCell id="K9rkXe4piy7wDcdysyzR-41" value="" style="rounded=0;whiteSpace=wrap;html=1;" vertex="1" parent="1">
          <mxGeometry x="2265" y="400" width="180" height="330" as="geometry" />
        </mxCell>
        <mxCell id="K9rkXe4piy7wDcdysyzR-42" value="&lt;div&gt;&lt;font style=&quot;font-size: 20px;&quot;&gt;Bronze&lt;/font&gt;&lt;/div&gt;" style="text;html=1;align=center;verticalAlign=middle;whiteSpace=wrap;rounded=0;" vertex="1" parent="1">
          <mxGeometry x="1740" y="360" width="90" height="50" as="geometry" />
        </mxCell>
        <mxCell id="K9rkXe4piy7wDcdysyzR-45" value="" style="image;aspect=fixed;html=1;points=[];align=center;fontSize=12;image=img/lib/azure2/analytics/Power_BI_Embedded.svg;" vertex="1" parent="1">
          <mxGeometry x="2660" y="531" width="51" height="68" as="geometry" />
        </mxCell>
        <mxCell id="K9rkXe4piy7wDcdysyzR-63" style="edgeStyle=orthogonalEdgeStyle;rounded=0;orthogonalLoop=1;jettySize=auto;html=1;" edge="1" parent="1" source="K9rkXe4piy7wDcdysyzR-52" target="K9rkXe4piy7wDcdysyzR-39">
          <mxGeometry relative="1" as="geometry" />
        </mxCell>
        <mxCell id="K9rkXe4piy7wDcdysyzR-52" value="" style="rounded=0;whiteSpace=wrap;html=1;" vertex="1" parent="1">
          <mxGeometry x="1350" y="420" width="150" height="290" as="geometry" />
        </mxCell>
        <mxCell id="K9rkXe4piy7wDcdysyzR-46" value="BI Dashboards" style="text;html=1;align=center;verticalAlign=middle;whiteSpace=wrap;rounded=0;" vertex="1" parent="1">
          <mxGeometry x="2630" y="605" width="94.5" height="30" as="geometry" />
        </mxCell>
        <mxCell id="K9rkXe4piy7wDcdysyzR-54" value="Landing" style="text;html=1;align=center;verticalAlign=middle;whiteSpace=wrap;rounded=0;" vertex="1" parent="1">
          <mxGeometry x="1395" y="432" width="60" height="30" as="geometry" />
        </mxCell>
        <mxCell id="K9rkXe4piy7wDcdysyzR-55" value="" style="image;aspect=fixed;html=1;points=[];align=center;fontSize=12;image=img/lib/azure2/analytics/Data_Lake_Store_Gen1.svg;" vertex="1" parent="1">
          <mxGeometry x="1662.8" y="368" width="64" height="52" as="geometry" />
        </mxCell>
        <mxCell id="K9rkXe4piy7wDcdysyzR-56" value="" style="image;aspect=fixed;html=1;points=[];align=center;fontSize=12;image=img/lib/azure2/analytics/Data_Lake_Store_Gen1.svg;" vertex="1" parent="1">
          <mxGeometry x="1930" y="368" width="64" height="52" as="geometry" />
        </mxCell>
        <mxCell id="K9rkXe4piy7wDcdysyzR-57" value="" style="image;aspect=fixed;html=1;points=[];align=center;fontSize=12;image=img/lib/azure2/analytics/Data_Lake_Store_Gen1.svg;" vertex="1" parent="1">
          <mxGeometry x="2220" y="368" width="64" height="52" as="geometry" />
        </mxCell>
        <mxCell id="K9rkXe4piy7wDcdysyzR-59" value="daily loading csv files" style="image;aspect=fixed;html=1;points=[];align=center;fontSize=12;image=img/lib/azure2/general/Files.svg;" vertex="1" parent="1">
          <mxGeometry x="1393" y="485" width="64" height="70" as="geometry" />
        </mxCell>
        <mxCell id="K9rkXe4piy7wDcdysyzR-60" value="" style="rounded=1;whiteSpace=wrap;html=1;" vertex="1" parent="1">
          <mxGeometry x="1700" y="800" width="700" height="100" as="geometry" />
        </mxCell>
        <mxCell id="K9rkXe4piy7wDcdysyzR-61" value="Unity Catalog" style="text;html=1;align=center;verticalAlign=middle;whiteSpace=wrap;rounded=0;" vertex="1" parent="1">
          <mxGeometry x="1790" y="830" width="105" height="30" as="geometry" />
        </mxCell>
        <mxCell id="K9rkXe4piy7wDcdysyzR-62" value="&lt;h1 style=&quot;margin-top: 0px;&quot;&gt;Data Governance&lt;/h1&gt;" style="text;html=1;whiteSpace=wrap;overflow=hidden;rounded=0;" vertex="1" parent="1">
          <mxGeometry x="1710" y="760" width="220" height="120" as="geometry" />
        </mxCell>
        <mxCell id="K9rkXe4piy7wDcdysyzR-64" value="" style="image;aspect=fixed;html=1;points=[];align=center;fontSize=12;image=img/lib/azure2/general/Resource_Groups.svg;" vertex="1" parent="1">
          <mxGeometry x="1240" y="126" width="68" height="64" as="geometry" />
        </mxCell>
        <mxCell id="K9rkXe4piy7wDcdysyzR-66" value="&lt;ul&gt;&lt;li&gt;Incremental Load&lt;/li&gt;&lt;li&gt;Spark Structured Streaming using AutoLoader&lt;/li&gt;&lt;li&gt;Data Validation&lt;/li&gt;&lt;/ul&gt;" style="text;strokeColor=none;fillColor=none;html=1;whiteSpace=wrap;verticalAlign=middle;overflow=hidden;" vertex="1" parent="1">
          <mxGeometry x="1680" y="630" width="200" height="85" as="geometry" />
        </mxCell>
        <mxCell id="K9rkXe4piy7wDcdysyzR-67" value="&lt;ul&gt;&lt;li&gt;Data Cleaning &amp;amp; Standardizing&lt;/li&gt;&lt;li&gt;Business Rule Implementation&lt;/li&gt;&lt;li&gt;Incremental Loading&lt;/li&gt;&lt;li&gt;Data Quality and Profiling&lt;/li&gt;&lt;/ul&gt;" style="text;strokeColor=none;fillColor=none;html=1;whiteSpace=wrap;verticalAlign=middle;overflow=hidden;" vertex="1" parent="1">
          <mxGeometry x="1940" y="622" width="240" height="120" as="geometry" />
        </mxCell>
        <mxCell id="K9rkXe4piy7wDcdysyzR-68" value="&lt;ul&gt;&lt;li&gt;Fact and Dimension Tables&lt;/li&gt;&lt;li&gt;Star Schema&lt;/li&gt;&lt;li&gt;Change Data Feed (SCD T2)&lt;/li&gt;&lt;/ul&gt;" style="text;strokeColor=none;fillColor=none;html=1;whiteSpace=wrap;verticalAlign=middle;overflow=hidden;" vertex="1" parent="1">
          <mxGeometry x="2245" y="659" width="200" height="80" as="geometry" />
        </mxCell>
        <mxCell id="K9rkXe4piy7wDcdysyzR-69" value="complaints" style="image;aspect=fixed;html=1;points=[];align=center;fontSize=12;image=img/lib/azure2/general/Folder_Blank.svg;" vertex="1" parent="1">
          <mxGeometry x="1771.52" y="440" width="36.96" height="30" as="geometry" />
        </mxCell>
        <mxCell id="K9rkXe4piy7wDcdysyzR-70" value="checkpoint_compalints" style="image;aspect=fixed;html=1;points=[];align=center;fontSize=12;image=img/lib/azure2/general/Folder_Blank.svg;" vertex="1" parent="1">
          <mxGeometry x="1771.52" y="505" width="36.96" height="30" as="geometry" />
        </mxCell>
        <mxCell id="K9rkXe4piy7wDcdysyzR-71" value="&lt;font style=&quot;font-size: 8px;&quot;&gt;processed_complaints&lt;/font&gt;" style="image;aspect=fixed;html=1;points=[];align=center;fontSize=12;image=img/lib/azure2/general/Folder_Blank.svg;" vertex="1" parent="1">
          <mxGeometry x="1994" y="432" width="36.96" height="30" as="geometry" />
        </mxCell>
        <mxCell id="K9rkXe4piy7wDcdysyzR-72" value="&lt;font style=&quot;font-size: 8px;&quot;&gt;br_complaints&lt;/font&gt;" style="image;aspect=fixed;html=1;points=[];align=center;fontSize=12;image=img/lib/azure2/general/Folder_Blank.svg;" vertex="1" parent="1">
          <mxGeometry x="2080" y="432" width="36.96" height="30" as="geometry" />
        </mxCell>
        <mxCell id="K9rkXe4piy7wDcdysyzR-73" value="&lt;font style=&quot;font-size: 8px;&quot;&gt;quarantine_complaints&lt;/font&gt;" style="image;aspect=fixed;html=1;points=[];align=center;fontSize=12;image=img/lib/azure2/general/Folder_Blank.svg;" vertex="1" parent="1">
          <mxGeometry x="1994" y="501" width="36.96" height="30" as="geometry" />
        </mxCell>
        <mxCell id="K9rkXe4piy7wDcdysyzR-74" value="&lt;font style=&quot;font-size: 8px;&quot;&gt;checkpoint_complaints&lt;/font&gt;" style="image;aspect=fixed;html=1;points=[];align=center;fontSize=12;image=img/lib/azure2/general/Folder_Blank.svg;" vertex="1" parent="1">
          <mxGeometry x="2080" y="501" width="36.96" height="30" as="geometry" />
        </mxCell>
        <mxCell id="K9rkXe4piy7wDcdysyzR-75" value="" style="html=1;verticalLabelPosition=bottom;align=center;labelBackgroundColor=#ffffff;verticalAlign=top;strokeWidth=2;strokeColor=light-dark(#0080F0,#A85400);shadow=0;dashed=0;shape=mxgraph.ios7.icons.data;" vertex="1" parent="1">
          <mxGeometry x="1954.52" y="828" width="27" height="34" as="geometry" />
        </mxCell>
        <mxCell id="K9rkXe4piy7wDcdysyzR-76" value="" style="html=1;verticalLabelPosition=bottom;align=center;labelBackgroundColor=#ffffff;verticalAlign=top;strokeWidth=2;strokeColor=light-dark(#0080F0,#CCCCCC);shadow=0;dashed=0;shape=mxgraph.ios7.icons.data;" vertex="1" parent="1">
          <mxGeometry x="2068" y="830" width="27" height="34" as="geometry" />
        </mxCell>
        <mxCell id="K9rkXe4piy7wDcdysyzR-77" value="" style="html=1;verticalLabelPosition=bottom;align=center;labelBackgroundColor=#ffffff;verticalAlign=top;strokeWidth=2;strokeColor=light-dark(#0080F0, #d5a90b);shadow=0;dashed=0;shape=mxgraph.ios7.icons.data;" vertex="1" parent="1">
          <mxGeometry x="2193" y="830" width="27" height="34" as="geometry" />
        </mxCell>
        <mxCell id="K9rkXe4piy7wDcdysyzR-78" value="bronze" style="text;html=1;align=center;verticalAlign=middle;whiteSpace=wrap;rounded=0;" vertex="1" parent="1">
          <mxGeometry x="1938.02" y="864" width="60" height="30" as="geometry" />
        </mxCell>
        <mxCell id="K9rkXe4piy7wDcdysyzR-79" value="silver" style="text;html=1;align=center;verticalAlign=middle;whiteSpace=wrap;rounded=0;" vertex="1" parent="1">
          <mxGeometry x="2051.5" y="864" width="60" height="30" as="geometry" />
        </mxCell>
        <mxCell id="K9rkXe4piy7wDcdysyzR-80" value="gold" style="text;html=1;align=center;verticalAlign=middle;whiteSpace=wrap;rounded=0;" vertex="1" parent="1">
          <mxGeometry x="2176.5" y="864" width="60" height="30" as="geometry" />
        </mxCell>
        <mxCell id="K9rkXe4piy7wDcdysyzR-81" value="&lt;div&gt;&lt;font style=&quot;font-size: 20px;&quot;&gt;Silver&lt;/font&gt;&lt;/div&gt;" style="text;html=1;align=center;verticalAlign=middle;whiteSpace=wrap;rounded=0;" vertex="1" parent="1">
          <mxGeometry x="2010" y="360" width="90" height="50" as="geometry" />
        </mxCell>
        <mxCell id="K9rkXe4piy7wDcdysyzR-82" value="&lt;div&gt;&lt;font style=&quot;font-size: 20px;&quot;&gt;Gold&lt;/font&gt;&lt;/div&gt;" style="text;html=1;align=center;verticalAlign=middle;whiteSpace=wrap;rounded=0;" vertex="1" parent="1">
          <mxGeometry x="2310" y="360" width="90" height="50" as="geometry" />
        </mxCell>
        <mxCell id="K9rkXe4piy7wDcdysyzR-90" value="" style="edgeStyle=orthogonalEdgeStyle;rounded=0;orthogonalLoop=1;jettySize=auto;html=1;" edge="1" parent="1" source="K9rkXe4piy7wDcdysyzR-83" target="K9rkXe4piy7wDcdysyzR-86">
          <mxGeometry relative="1" as="geometry" />
        </mxCell>
        <mxCell id="K9rkXe4piy7wDcdysyzR-91" value="" style="edgeStyle=orthogonalEdgeStyle;rounded=0;orthogonalLoop=1;jettySize=auto;html=1;" edge="1" parent="1" source="K9rkXe4piy7wDcdysyzR-83" target="K9rkXe4piy7wDcdysyzR-85">
          <mxGeometry relative="1" as="geometry" />
        </mxCell>
        <mxCell id="K9rkXe4piy7wDcdysyzR-92" style="edgeStyle=orthogonalEdgeStyle;rounded=0;orthogonalLoop=1;jettySize=auto;html=1;exitX=0;exitY=0.5;exitDx=0;exitDy=0;entryX=0.5;entryY=1;entryDx=0;entryDy=0;" edge="1" parent="1" source="K9rkXe4piy7wDcdysyzR-83" target="K9rkXe4piy7wDcdysyzR-84">
          <mxGeometry relative="1" as="geometry" />
        </mxCell>
        <mxCell id="K9rkXe4piy7wDcdysyzR-95" style="edgeStyle=orthogonalEdgeStyle;rounded=0;orthogonalLoop=1;jettySize=auto;html=1;exitX=0;exitY=1;exitDx=0;exitDy=0;entryX=1;entryY=0.75;entryDx=0;entryDy=0;" edge="1" parent="1" source="K9rkXe4piy7wDcdysyzR-83" target="K9rkXe4piy7wDcdysyzR-93">
          <mxGeometry relative="1" as="geometry" />
        </mxCell>
        <mxCell id="K9rkXe4piy7wDcdysyzR-83" value="Fact" style="ellipse;whiteSpace=wrap;html=1;aspect=fixed;fillStyle=solid;fillColor=light-dark(#FFFFFF,#CCCC00);" vertex="1" parent="1">
          <mxGeometry x="2330" y="484" width="47" height="47" as="geometry" />
        </mxCell>
        <mxCell id="K9rkXe4piy7wDcdysyzR-84" value="Dim 1" style="rounded=0;whiteSpace=wrap;html=1;fillColor=#6d8764;fontColor=#ffffff;strokeColor=#3A5431;" vertex="1" parent="1">
          <mxGeometry x="2284" y="432" width="40" height="30" as="geometry" />
        </mxCell>
        <mxCell id="K9rkXe4piy7wDcdysyzR-85" value="Dim 3" style="rounded=0;whiteSpace=wrap;html=1;fillColor=#6d8764;fontColor=#ffffff;strokeColor=#3A5431;" vertex="1" parent="1">
          <mxGeometry x="2335" y="580" width="40" height="25" as="geometry" />
        </mxCell>
        <mxCell id="K9rkXe4piy7wDcdysyzR-89" value="" style="edgeStyle=orthogonalEdgeStyle;rounded=0;orthogonalLoop=1;jettySize=auto;html=1;" edge="1" parent="1" source="K9rkXe4piy7wDcdysyzR-86" target="K9rkXe4piy7wDcdysyzR-87">
          <mxGeometry relative="1" as="geometry" />
        </mxCell>
        <mxCell id="K9rkXe4piy7wDcdysyzR-86" value="Dim 4" style="rounded=0;whiteSpace=wrap;html=1;fillColor=#6d8764;fontColor=#ffffff;strokeColor=#3A5431;" vertex="1" parent="1">
          <mxGeometry x="2400" y="538" width="30" height="30" as="geometry" />
        </mxCell>
        <mxCell id="K9rkXe4piy7wDcdysyzR-87" value="Dim 2" style="rounded=0;whiteSpace=wrap;html=1;fillColor=#6d8764;fontColor=#ffffff;strokeColor=#3A5431;" vertex="1" parent="1">
          <mxGeometry x="2380" y="432" width="40" height="30" as="geometry" />
        </mxCell>
        <mxCell id="K9rkXe4piy7wDcdysyzR-93" value="Dim 5" style="rounded=0;whiteSpace=wrap;html=1;fillColor=#6d8764;fontColor=#ffffff;strokeColor=#3A5431;" vertex="1" parent="1">
          <mxGeometry x="2280" y="531" width="40" height="30" as="geometry" />
        </mxCell>
        <mxCell id="K9rkXe4piy7wDcdysyzR-96" value="" style="image;aspect=fixed;html=1;points=[];align=center;fontSize=12;image=img/lib/azure2/analytics/Azure_Databricks.svg;" vertex="1" parent="1">
          <mxGeometry x="1520" y="520" width="37.86" height="41" as="geometry" />
        </mxCell>
        <mxCell id="K9rkXe4piy7wDcdysyzR-97" value="" style="image;aspect=fixed;html=1;points=[];align=center;fontSize=12;image=img/lib/azure2/analytics/Azure_Databricks.svg;" vertex="1" parent="1">
          <mxGeometry x="1892.14" y="520" width="37.86" height="41" as="geometry" />
        </mxCell>
        <mxCell id="K9rkXe4piy7wDcdysyzR-99" value="audit_complaints" style="image;aspect=fixed;html=1;points=[];align=center;fontSize=12;image=img/lib/azure2/general/Folder_Blank.svg;" vertex="1" parent="1">
          <mxGeometry x="1771.52" y="580" width="36.96" height="30" as="geometry" />
        </mxCell>
        <mxCell id="K9rkXe4piy7wDcdysyzR-102" value="Delta Format" style="image;aspect=fixed;html=1;points=[];align=center;fontSize=12;image=img/lib/azure2/identity/Azure_Active_Directory.svg;" vertex="1" parent="1">
          <mxGeometry x="2026.41" y="561" width="53.59" height="49" as="geometry" />
        </mxCell>
        <mxCell id="K9rkXe4piy7wDcdysyzR-103" value="Delta Format" style="image;aspect=fixed;html=1;points=[];align=center;fontSize=12;image=img/lib/azure2/identity/Azure_Active_Directory.svg;" vertex="1" parent="1">
          <mxGeometry x="2332.0299999999997" y="610" width="45.94" height="42" as="geometry" />
        </mxCell>
        <mxCell id="K9rkXe4piy7wDcdysyzR-104" value="&lt;h1 style=&quot;margin-top: 0px;&quot;&gt;&lt;font style=&quot;font-size: 35px;&quot;&gt;Consumer Complaints Data Warehouse&lt;/font&gt;&lt;/h1&gt;" style="text;html=1;whiteSpace=wrap;overflow=hidden;rounded=0;" vertex="1" parent="1">
          <mxGeometry x="1719.06" y="190" width="668.29" height="120" as="geometry" />
        </mxCell>
      </root>
    </mxGraphModel>
  </diagram>
</mxfile>
